<?xml version="1.0" standalone="no"?>
<!DOCTYPE svg PUBLIC "-//W3C//DTD SVG 20010904//EN"
 "http://www.w3.org/TR/2001/REC-SVG-20010904/DTD/svg10.dtd">
<svg version="1.0" xmlns="http://www.w3.org/2000/svg"
 width="300.000000pt" height="300.000000pt" viewBox="0 0 300.000000 300.000000"
 preserveAspectRatio="xMidYMid meet">
<metadata>
Created by potrace 1.14, written by Peter Selinger 2001-2017
</metadata>
<g transform="translate(0.000000,300.000000) scale(0.100000,-0.100000)"
fill="#000000" stroke="none">
<path d="M728 2552 l-28 -3 0 -900 0 -899 33 -1 c33 0 191 0 265 1 l42 0 0
300 0 300 164 0 164 0 49 -57 c26 -32 51 -60 54 -63 5 -5 148 -168 279 -320
30 -35 75 -86 100 -112 l45 -49 188 0 c103 0 194 1 202 1 21 0 19 13 -7 42
-25 27 -132 148 -188 212 -19 22 -42 47 -50 56 -8 9 -31 34 -50 56 -19 22 -65
73 -101 114 -37 41 -83 93 -102 115 l-36 40 77 25 c109 35 159 65 223 131 166
172 202 478 84 699 -70 130 -237 255 -379 284 -12 3 -43 9 -71 15 -27 5 -221
10 -430 11 -209 1 -407 2 -440 3 -33 1 -72 1 -87 -1z m955 -342 c159 -60 227
-239 151 -397 -31 -65 -76 -105 -151 -133 -55 -21 -75 -22 -348 -24 l-290 -1
-3 284 c-1 166 2 287 7 290 5 3 137 5 293 4 264 -1 287 -3 341 -23z"/>
<path d="M717 550 c-10 -4 -13 -45 -14 -162 0 -87 2 -158 6 -158 9 -1 1530 -1
1564 -1 l27 1 0 163 0 162 -785 0 c-432 0 -791 -2 -798 -5z"/>
</g>
</svg>
